<svg width="48" height="48" viewBox="0 0 48 48" fill="none" xmlns="http://www.w3.org/2000/svg">
<rect width="48" height="48" rx="24" fill="white"/>
<path d="M25.0564 23.6466L24.7028 24.0001L25.0564 24.3537L30.7153 30.0126C30.7155 30.0128 30.7157 30.013 30.7159 30.0131C30.8087 30.1068 30.8607 30.2333 30.8607 30.3651C30.8607 30.4967 30.8089 30.623 30.7164 30.7166C30.6228 30.809 30.4965 30.8609 30.365 30.8609C30.2331 30.8609 30.1066 30.8088 30.013 30.716C30.0128 30.7158 30.0126 30.7157 30.0125 30.7155L24.3535 25.0566L24 24.703L23.6464 25.0566L17.9875 30.7155C17.9873 30.7157 17.9871 30.7158 17.987 30.716C17.8933 30.8088 17.7668 30.8609 17.635 30.8609C17.5034 30.8609 17.3771 30.809 17.2835 30.7166C17.191 30.623 17.1392 30.4967 17.1392 30.3651C17.1392 30.2332 17.1913 30.1067 17.2841 30.0131C17.2843 30.0129 17.2844 30.0128 17.2846 30.0126L22.9435 24.3537L23.2971 24.0001L22.9435 23.6466L17.2995 18.0026C17.2243 17.9088 17.1852 17.7909 17.1899 17.6704C17.1947 17.5445 17.2469 17.4251 17.3359 17.3361C17.425 17.2471 17.5444 17.1949 17.6702 17.19C17.7907 17.1854 17.9086 17.2244 18.0024 17.2997L23.6464 22.9437L24 23.2972L24.3535 22.9437L30.0135 17.2837L30.0272 17.27L30.0397 17.2553C30.0845 17.203 30.1397 17.1605 30.2017 17.1305C30.2638 17.1005 30.3313 17.0836 30.4002 17.0809C30.4691 17.0783 30.5377 17.0899 30.6019 17.115C30.666 17.1402 30.7243 17.1783 30.7731 17.227C30.8218 17.2757 30.8599 17.334 30.885 17.3982C30.9102 17.4623 30.9218 17.531 30.9191 17.5999C30.9165 17.6687 30.8996 17.7363 30.8696 17.7983C30.8396 17.8604 30.7971 17.9155 30.7447 17.9603L30.7301 17.9729L30.7164 17.9866L25.0564 23.6466Z" fill="black" stroke="#0D0E0F"/>
</svg>
