<svg width="20" height="20" viewBox="0 0 20 20" fill="none" xmlns="http://www.w3.org/2000/svg">
<path fill-rule="evenodd" clip-rule="evenodd" d="M3.53478 6.45333C3.80272 6.18284 4.23708 6.18098 4.50501 6.45519L10.4855 12.5602C10.7535 12.8335 10.7525 13.275 10.4837 13.5464C10.3502 13.6812 10.1746 13.75 9.99995 13.75C9.82346 13.75 9.64788 13.6812 9.51438 13.5446L3.53387 7.43954C3.26593 7.16627 3.26685 6.72475 3.53478 6.45333ZM15.4942 6.45527C15.7621 6.18106 16.1965 6.18292 16.4644 6.45341C16.7333 6.72482 16.7342 7.16634 16.4672 7.43962L12.4957 11.4942C12.3622 11.6308 12.1857 11.6996 12.0101 11.6996C11.8355 11.6996 11.6599 11.6308 11.5264 11.496C11.2575 11.2246 11.2566 10.7831 11.5236 10.5098L15.4942 6.45527Z" fill="#9CA3AF"/>
</svg>
