<svg width="36" height="36" viewBox="0 0 36 36" fill="none" xmlns="http://www.w3.org/2000/svg">
<circle cx="18" cy="18" r="18" fill="#FFFBEB"/>
<path d="M11.3333 23.3335H24.6666V24.6668H11.3333V23.3335ZM12.6666 18.0002H13.9999V22.6668H12.6666V18.0002ZM15.9999 18.0002H17.3333V22.6668H15.9999V18.0002ZM18.6666 18.0002H19.9999V22.6668H18.6666V18.0002ZM21.9999 18.0002H23.3333V22.6668H21.9999V18.0002ZM11.3333 14.6668L17.9999 11.3335L24.6666 14.6668V17.3335H11.3333V14.6668ZM12.6666 15.4908V16.0002H23.3333V15.4908L17.9999 12.8242L12.6666 15.4908ZM17.9999 15.3335C17.8231 15.3335 17.6535 15.2633 17.5285 15.1382C17.4035 15.0132 17.3333 14.8436 17.3333 14.6668C17.3333 14.49 17.4035 14.3204 17.5285 14.1954C17.6535 14.0704 17.8231 14.0002 17.9999 14.0002C18.1767 14.0002 18.3463 14.0704 18.4713 14.1954C18.5963 14.3204 18.6666 14.49 18.6666 14.6668C18.6666 14.8436 18.5963 15.0132 18.4713 15.1382C18.3463 15.2633 18.1767 15.3335 17.9999 15.3335Z" fill="#F59E0B"/>
</svg>
