<svg width="14" height="14" viewBox="0 0 14 14" fill="none" xmlns="http://www.w3.org/2000/svg">
<path fill-rule="evenodd" clip-rule="evenodd" d="M6.99967 13.6667C3.31967 13.6667 0.333008 10.6867 0.333008 7.00004C0.333008 3.32004 3.31967 0.333374 6.99967 0.333374C10.6863 0.333374 13.6663 3.32004 13.6663 7.00004C13.6663 10.6867 10.6863 13.6667 6.99967 13.6667ZM9.12634 9.47337C9.20634 9.52004 9.29301 9.54671 9.38634 9.54671C9.55301 9.54671 9.71967 9.46004 9.81301 9.30004C9.95301 9.06671 9.87967 8.76004 9.63967 8.61337L7.26634 7.20004V4.12004C7.26634 3.84004 7.03967 3.62004 6.76634 3.62004C6.49301 3.62004 6.26634 3.84004 6.26634 4.12004V7.48671C6.26634 7.66004 6.35967 7.82004 6.51301 7.91337L9.12634 9.47337Z" fill="none" stroke="currentColor"/>
</svg>
