<svg width="24" height="24" viewBox="0 0 24 24" fill="none" xmlns="http://www.w3.org/2000/svg">
<path d="M4 6H20V4H4V6ZM20 6V18H22V6H20ZM20 18H4V20H20V18ZM4 18V6H2V18H4ZM4 18H4H2C2 19.1046 2.89543 20 4 20V18ZM20 18V18V20C21.1046 20 22 19.1046 22 18H20ZM20 6H22C22 4.89543 21.1046 4 20 4V6ZM4 4C2.89543 4 2 4.89543 2 6H4V6V4Z" fill="currentColor"/>
<path d="M7 14C6.44772 14 6 14.4477 6 15C6 15.5523 6.44772 16 7 16V14ZM11 16C11.5523 16 12 15.5523 12 15C12 14.4477 11.5523 14 11 14V16ZM7 16H11V14H7V16Z" fill="currentColor"/>
<path d="M3 10C2.44772 10 2 10.4477 2 11C2 11.5523 2.44772 12 3 12V10ZM21 12C21.5523 12 22 11.5523 22 11C22 10.4477 21.5523 10 21 10V12ZM3 12H21V10H3V12Z" fill="currentColor"/>
<path d="M3 8C2.44772 8 2 8.44772 2 9C2 9.55228 2.44772 10 3 10V8ZM21 10C21.5523 10 22 9.55228 22 9C22 8.44772 21.5523 8 21 8V10ZM3 10H21V8H3V10Z" fill="currentColor"/>
</svg>
