<svg width="16" height="16" viewBox="0 0 16 16" fill="none" xmlns="http://www.w3.org/2000/svg">
<path d="M9.0564 7.64656L8.70285 8.00011L9.0564 8.35366L14.7153 14.0126C14.7155 14.0128 14.7157 14.013 14.7159 14.0131C14.8087 14.1068 14.8607 14.2333 14.8607 14.3651C14.8607 14.4967 14.8089 14.623 14.7164 14.7166C14.6228 14.809 14.4966 14.8609 14.365 14.8609C14.2331 14.8609 14.1066 14.8088 14.013 14.716C14.0128 14.7158 14.0126 14.7157 14.0125 14.7155L8.35351 9.05656L7.99995 8.703L7.6464 9.05656L1.98745 14.7155C1.98729 14.7157 1.98714 14.7158 1.98698 14.716C1.89334 14.8088 1.76682 14.8609 1.63495 14.8609C1.50335 14.8609 1.37708 14.809 1.2835 14.7165C1.19104 14.623 1.13916 14.4967 1.13916 14.3651C1.13916 14.2332 1.19125 14.1067 1.28408 14.0131C1.28424 14.0129 1.2844 14.0128 1.28456 14.0126L6.94351 8.35366L7.29706 8.00011L6.94351 7.64656L1.29951 2.00256C1.22426 1.90878 1.18521 1.79085 1.18987 1.67036C1.19473 1.54452 1.2469 1.42515 1.33594 1.3361C1.42499 1.24705 1.54436 1.19489 1.6702 1.19003C1.7907 1.18537 1.90863 1.22442 2.0024 1.29967L7.6464 6.94366L7.99995 7.29722L8.35351 6.94366L14.0135 1.28366L14.0272 1.27001L14.0397 1.25534C14.0845 1.203 14.1397 1.16049 14.2017 1.13048C14.2638 1.10046 14.3313 1.0836 14.4002 1.08094C14.4691 1.07828 14.5377 1.08988 14.6019 1.11502C14.666 1.14016 14.7243 1.17829 14.773 1.22701C14.8218 1.27574 14.8599 1.33401 14.885 1.39818C14.9102 1.46234 14.9218 1.53101 14.9191 1.59986C14.9165 1.66872 14.8996 1.73629 14.8696 1.79832C14.8396 1.86036 14.7971 1.91552 14.7447 1.96034L14.7301 1.9729L14.7164 1.98656L9.0564 7.64656Z" fill="black" stroke="currentColor"/>
</svg>
