<svg width="32" height="32" viewBox="0 0 32 32" fill="none" xmlns="http://www.w3.org/2000/svg">
<path fill-rule="evenodd" clip-rule="evenodd" d="M13.3335 15.9999C13.3335 14.5272 14.5274 13.3333 16.0002 13.3333C17.4729 13.3333 18.6668 14.5272 18.6668 15.9999C18.6668 17.4727 17.4729 18.6666 16.0002 18.6666C14.5274 18.6666 13.3335 17.4727 13.3335 15.9999Z" fill="#161719"/>
<path fill-rule="evenodd" clip-rule="evenodd" d="M22.6665 15.9999C22.6665 14.5272 23.8604 13.3333 25.3332 13.3333C26.8059 13.3333 27.9998 14.5272 27.9998 15.9999C27.9998 17.4727 26.8059 18.6666 25.3332 18.6666C23.8604 18.6666 22.6665 17.4727 22.6665 15.9999Z" fill="#161719"/>
<path fill-rule="evenodd" clip-rule="evenodd" d="M4 15.9999C4 14.5272 5.19391 13.3333 6.66667 13.3333C8.13943 13.3333 9.33333 14.5272 9.33333 15.9999C9.33333 17.4727 8.13943 18.6666 6.66667 18.6666C5.19391 18.6666 4 17.4727 4 15.9999Z" fill="#161719"/>
</svg>
