<svg width="24" height="24" viewBox="0 0 24 24" fill="none" xmlns="http://www.w3.org/2000/svg">
<path d="M15.7071 13.7071C16.0976 13.3166 16.0976 12.6834 15.7071 12.2929C15.3166 11.9024 14.6834 11.9024 14.2929 12.2929L15.7071 13.7071ZM11 17L10.2929 17.7071C10.6834 18.0976 11.3166 18.0976 11.7071 17.7071L11 17ZM9.70711 14.2929C9.31658 13.9024 8.68342 13.9024 8.29289 14.2929C7.90237 14.6834 7.90237 15.3166 8.29289 15.7071L9.70711 14.2929ZM14.2929 12.2929L10.2929 16.2929L11.7071 17.7071L15.7071 13.7071L14.2929 12.2929ZM11.7071 16.2929L9.70711 14.2929L8.29289 15.7071L10.2929 17.7071L11.7071 16.2929Z" fill="currentColor"/>
<path d="M6 21V20H6L6 21ZM18 21V22V21ZM19 20H18H19ZM19 8.79187H20H19ZM18.7338 8.11246L18 8.79187L18 8.79187L18.7338 8.11246ZM14.2968 3.32059L15.0306 2.64118V2.64118L14.2968 3.32059ZM13.5631 3V2V3ZM6 3L6 4L6 3ZM5 4L6 4L5 4ZM5 20H4H5ZM6 22H18V20H6V22ZM20 20L20 8.79187H18L18 20H20ZM19.4675 7.43305L15.0306 2.64118L13.5631 4L18 8.79187L19.4675 7.43305ZM13.5631 2L6 2L6 4L13.5631 4V2ZM4 4L4 20H6L6 4L4 4ZM6 2C4.89543 2 4 2.89543 4 4L6 4L6 4L6 2ZM15.0306 2.64118C14.6521 2.23239 14.1202 2 13.5631 2V4V4L15.0306 2.64118ZM20 8.79187C20 8.28803 19.8098 7.80275 19.4675 7.43305L18 8.79187V8.79187H20ZM18 22C19.1046 22 20 21.1046 20 20H18H18V22ZM6 20H4C4 21.1046 4.89543 22 6 22L6 20Z" fill="currentColor"/>
<path d="M19 10C19.5523 10 20 9.55228 20 9C20 8.44771 19.5523 8 19 8V10ZM14 9L14 10L14 9ZM13 8H12H13ZM14 3C14 2.44772 13.5523 2 13 2C12.4477 2 12 2.44772 12 3L14 3ZM19 8L14 8L14 10L19 10V8ZM14 8L14 3L12 3L12 8H14ZM14 8H14H12C12 9.10457 12.8954 10 14 10L14 8Z" fill="currentColor"/>
</svg>
