<svg width="21" height="18" viewBox="0 0 21 18" fill="none" xmlns="http://www.w3.org/2000/svg">
<path fill-rule="evenodd" clip-rule="evenodd" d="M10.5001 6.5998C9.15511 6.5998 8.06112 7.67574 8.06112 9.00074C8.06112 9.39154 8.16712 9.76364 8.34712 10.1013L11.6191 6.88035C11.2771 6.70415 10.8951 6.5998 10.5001 6.5998ZM17.8851 0.711153C18.1711 0.429616 18.6341 0.429616 18.9201 0.711153C19.2061 0.992689 19.2061 1.44846 18.9201 1.73L3.11512 17.2884C2.97212 17.4291 2.78512 17.5 2.59812 17.5C2.41012 17.5 2.22312 17.4291 2.08012 17.2884C1.79412 17.0068 1.79412 16.551 2.08012 16.2705L7.27612 11.1546C6.83712 10.5246 6.59812 9.78136 6.59812 9.00074C6.59812 6.88232 8.34812 5.15963 10.5001 5.15963C11.2871 5.15963 12.0531 5.39785 12.6901 5.82508L14.7241 3.82381C11.8561 1.98693 8.35912 2.14443 5.62712 4.27368C4.18412 5.39096 2.94512 7.02112 2.03212 9.00172C2.43812 9.88669 2.91012 10.7028 3.43612 11.4312C3.67012 11.7551 3.59312 12.2049 3.26412 12.4353C3.13512 12.5259 2.98712 12.5692 2.84012 12.5692C2.61112 12.5692 2.38612 12.4648 2.24312 12.266C1.60112 11.3771 1.03412 10.374 0.559126 9.28424C0.480126 9.10312 0.480126 8.89639 0.560126 8.71526C1.58112 6.38816 3.01912 4.46071 4.72112 3.14261C8.01912 0.574322 12.3511 0.447335 15.7771 2.78724L17.8851 0.711153ZM20.44 8.71418C19.907 7.50436 19.271 6.40971 18.547 5.46371C18.303 5.14575 17.845 5.08177 17.523 5.32097C17.199 5.56117 17.135 6.01202 17.378 6.32998C17.975 7.1106 18.509 8.00739 18.968 9.00064C17.092 13.0662 13.945 15.4829 10.5 15.4829C9.72001 15.4829 8.94401 15.3579 8.19402 15.1118C7.80902 14.9887 7.39602 15.1895 7.26902 15.5675C7.14102 15.9446 7.34802 16.3521 7.73102 16.4791C8.63002 16.7744 9.56201 16.924 10.5 16.924C14.627 16.924 18.343 14.0683 20.44 9.28513C20.52 9.104 20.52 8.89629 20.44 8.71418ZM12.8907 9.42757C12.7127 10.4021 11.9287 11.1759 10.9387 11.3521C10.5407 11.4239 10.2767 11.799 10.3487 12.1908C10.4127 12.5383 10.7217 12.7814 11.0677 12.7814C11.1117 12.7814 11.1557 12.7775 11.1997 12.7706C12.7877 12.4861 14.0467 11.2457 14.3307 9.68253C14.4027 9.28976 14.1377 8.91569 13.7397 8.84579C13.3447 8.77492 12.9617 9.03775 12.8907 9.42757Z" fill="none" stroke="currentColor"/>
</svg>
