<svg width="221" height="84" viewBox="0 0 221 84" fill="none" xmlns="http://www.w3.org/2000/svg">
<path d="M0.00272594 39.787C0.00272594 50.4157 4.14756 60.4053 11.672 67.9199C14.8664 71.1102 20.0461 71.1102 23.2405 67.9199L39.8416 51.3404L56.4427 67.9199C59.6371 71.1102 64.8168 71.1102 68.0112 67.9199C75.5356 60.4053 79.6804 50.413 79.6804 39.787C79.6804 29.161 75.5356 19.1687 68.0112 11.6541C60.4868 4.13944 50.4814 0 39.8416 0C29.2017 0 19.1964 4.13944 11.6693 11.6541C4.14483 19.1687 0 29.161 0 39.787H0.00272594ZM18.4856 49.5617C17.094 46.5347 16.3615 43.2193 16.3615 39.787C16.3615 33.5235 18.8043 27.6352 23.2377 23.2075C27.6712 18.777 33.5671 16.3402 39.8389 16.3402C46.1106 16.3402 52.0065 18.7798 56.44 23.2075C60.8735 27.6352 63.3162 33.5235 63.3162 39.787C63.3162 43.2166 62.5837 46.5347 61.1921 49.5617L45.6204 34.0103C42.426 30.82 37.2463 30.82 34.0519 34.0103L18.4802 49.5617H18.4856Z" fill="white"/>
<path d="M45.6258 34.0103L61.1975 49.5618C61.203 49.5482 61.2084 49.5318 61.2166 49.5182C61.2302 49.5291 61.2438 49.54 61.2574 49.5509C60.1028 52.1074 58.4906 54.46 56.4454 56.5025C54.4628 58.4825 52.1889 60.0599 49.7189 61.2049L39.8443 51.3432L29.9697 61.2049C27.4997 60.0599 25.2257 58.4825 23.2432 56.5025C21.2144 54.4763 19.6103 52.1428 18.4611 49.6107C18.4992 49.5672 18.5374 49.5237 18.5728 49.4774L34.0601 34.0103C37.2545 30.8201 42.4341 30.8201 45.6285 34.0103H45.6258Z" fill="#E0E0E0"/>
<path d="M40.2937 83.1123C45.4089 83.1123 49.5556 78.971 49.5556 73.8625C49.5556 68.754 45.4089 64.6127 40.2937 64.6127C35.1785 64.6127 31.0318 68.754 31.0318 73.8625C31.0318 78.971 35.1785 83.1123 40.2937 83.1123Z" fill="#F7931E"/>
<path d="M141.344 71.0531V42.0797C141.344 36.3438 138.326 32.2588 133.846 32.2588C129.367 32.2588 125.767 36.6348 125.767 42.4687V71.0531H113.111V42.2729C113.111 34.5923 111.066 32.6477 105.516 32.6477C100.454 32.6477 97.8257 35.7591 97.8257 41.9818V71.0531H85.1706V23.2157H97.0468V30.2163C100.26 23.8956 104.737 21.951 111.066 21.951C117.395 21.951 120.704 23.9935 124.405 29.5363C127.033 24.2872 131.317 21.951 137.354 21.951C146.992 21.951 153.71 28.9516 153.71 37.8968V71.0531H141.346H141.344Z" fill="white"/>
<path d="M189.243 71.0531V42.0797C189.243 34.6902 187.1 32.6477 181.065 32.6477C174.445 32.6477 171.232 36.3411 171.232 43.6354V71.0531H158.577V23.2157H170.649V30.2163C173.568 24.8693 178.437 21.951 186.128 21.951C195.278 21.951 201.997 27.4938 201.997 37.8968V71.0531H189.243Z" fill="white"/>
<path d="M214.047 17.8714C217.583 17.8714 220.45 15.0086 220.45 11.4773C220.45 7.94592 217.583 5.08319 214.047 5.08319C210.511 5.08319 207.645 7.94592 207.645 11.4773C207.645 15.0086 210.511 17.8714 214.047 17.8714Z" fill="white"/>
<path d="M220.493 23.2157H207.838V71.0531H220.493V23.2157Z" fill="white"/>
</svg>
