<svg width="23" height="23" viewBox="0 0 23 23" fill="none" xmlns="http://www.w3.org/2000/svg">
<path d="M20.1902 8.45998L8.1902 20.46C7.9141 20.7302 7.56758 20.9173 7.1902 21L3.6502 21.71C3.32792 21.7737 2.9949 21.7571 2.68057 21.6615C2.36625 21.566 2.0803 21.3945 1.84799 21.1622C1.61569 20.9299 1.44419 20.6439 1.34865 20.3296C1.25311 20.0153 1.23647 19.6823 1.3002 19.36L2.0002 15.85C2.08287 15.4726 2.27 15.1261 2.5402 14.85L14.3802 2.99998C14.7668 2.60387 15.2287 2.28909 15.7388 2.07417C16.2488 1.85925 16.7967 1.74854 17.3502 1.74854C17.9037 1.74854 18.4516 1.85925 18.9616 2.07417C19.4717 2.28909 19.9336 2.60387 20.3202 2.99998C21.0091 3.75992 21.3798 4.75549 21.3556 5.78095C21.3314 6.80641 20.9142 7.78338 20.1902 8.50998V8.45998Z" stroke="currentColor" stroke-width="2" stroke-linecap="round" stroke-linejoin="round"/>
</svg>
