<svg width="57" height="57" viewBox="0 0 57 57" fill="none" xmlns="http://www.w3.org/2000/svg">
<circle cx="29" cy="28" r="28" fill="#7F3DFF"/>
<mask id="path-2-inside-1_568_3871" fill="white">
<path d="M29.5303 29.5306L39.5358 29.5306C39.7076 29.5439 39.8803 29.5215 40.043 29.4649C40.2057 29.4083 40.3549 29.3187 40.4814 29.2017C40.6078 29.0846 40.7087 28.9427 40.7777 28.7849C40.8467 28.627 40.8823 28.4566 40.8823 28.2843C40.8823 28.112 40.8467 27.9416 40.7777 27.7838C40.7087 27.6259 40.6078 27.484 40.4814 27.367C40.3549 27.2499 40.2057 27.1603 40.043 27.1037C39.8803 27.0471 39.7076 27.0247 39.5358 27.038L29.5303 27.038L29.5303 17.0325C29.506 16.7186 29.3642 16.4254 29.1331 16.2116C28.9021 15.9977 28.5988 15.8789 28.284 15.8789C27.9692 15.8789 27.6659 15.9977 27.4349 16.2116C27.2039 16.4254 27.062 16.7186 27.0377 17.0325L27.0377 27.038L17.0322 27.038C16.7019 27.039 16.3855 27.1706 16.152 27.4041C15.9185 27.6377 15.7869 27.9541 15.7859 28.2843C15.7869 28.6145 15.9185 28.931 16.152 29.1645C16.3855 29.398 16.7019 29.5296 17.0322 29.5306L27.0377 29.5306L27.0377 39.5361C27.0387 39.8664 27.1703 40.1828 27.4038 40.4163C27.6374 40.6498 27.9538 40.7814 28.284 40.7824C28.6142 40.7814 28.9307 40.6498 29.1642 40.4163C29.3977 40.1828 29.5293 39.8664 29.5303 39.5361V29.5306Z"/>
</mask>
<path d="M29.5303 29.5306L39.5358 29.5306C39.7076 29.5439 39.8803 29.5215 40.043 29.4649C40.2057 29.4083 40.3549 29.3187 40.4814 29.2017C40.6078 29.0846 40.7087 28.9427 40.7777 28.7849C40.8467 28.627 40.8823 28.4566 40.8823 28.2843C40.8823 28.112 40.8467 27.9416 40.7777 27.7838C40.7087 27.6259 40.6078 27.484 40.4814 27.367C40.3549 27.2499 40.2057 27.1603 40.043 27.1037C39.8803 27.0471 39.7076 27.0247 39.5358 27.038L29.5303 27.038L29.5303 17.0325C29.506 16.7186 29.3642 16.4254 29.1331 16.2116C28.9021 15.9977 28.5988 15.8789 28.284 15.8789C27.9692 15.8789 27.6659 15.9977 27.4349 16.2116C27.2039 16.4254 27.062 16.7186 27.0377 17.0325L27.0377 27.038L17.0322 27.038C16.7019 27.039 16.3855 27.1706 16.152 27.4041C15.9185 27.6377 15.7869 27.9541 15.7859 28.2843C15.7869 28.6145 15.9185 28.931 16.152 29.1645C16.3855 29.398 16.7019 29.5296 17.0322 29.5306L27.0377 29.5306L27.0377 39.5361C27.0387 39.8664 27.1703 40.1828 27.4038 40.4163C27.6374 40.6498 27.9538 40.7814 28.284 40.7824C28.6142 40.7814 28.9307 40.6498 29.1642 40.4163C29.3977 40.1828 29.5293 39.8664 29.5303 39.5361V29.5306Z" fill="black"/>
<path d="M29.5303 29.5306L29.5303 27.0306H27.0303L27.0303 29.5306L29.5303 29.5306ZM39.5358 29.5306L39.7287 27.038L39.6324 27.0306H39.5358L39.5358 29.5306ZM39.5358 27.038L39.5358 29.538H39.6324L39.7287 29.5306L39.5358 27.038ZM29.5303 27.038L27.0303 27.038L27.0303 29.538L29.5303 29.538L29.5303 27.038ZM29.5303 17.0325L32.0303 17.0325V16.9359L32.0228 16.8396L29.5303 17.0325ZM27.0377 17.0325L24.5452 16.8396L24.5377 16.9359V17.0325L27.0377 17.0325ZM27.0377 27.038L27.0377 29.538L29.5377 29.538L29.5377 27.038H27.0377ZM17.0322 27.038L17.0322 24.538L17.0247 24.538L17.0322 27.038ZM15.7859 28.2843L13.2859 28.2769L13.2859 28.2843L13.2859 28.2917L15.7859 28.2843ZM17.0322 29.5306L17.0247 32.0306L17.0322 32.0306L17.0322 29.5306ZM27.0377 29.5306L29.5377 29.5306V27.0306L27.0377 27.0306L27.0377 29.5306ZM27.0377 39.5361L24.5377 39.5361L24.5377 39.5436L27.0377 39.5361ZM28.284 40.7824L28.2766 43.2824L28.284 43.2824L28.2914 43.2824L28.284 40.7824ZM29.5303 39.5361L32.0303 39.5436L32.0303 39.5361L29.5303 39.5361ZM29.5303 32.0306L39.5358 32.0306L39.5358 27.0306L29.5303 27.0306L29.5303 32.0306ZM39.343 32.0231C39.8583 32.063 40.3763 31.9959 40.8644 31.8261L39.2216 27.1037C39.3843 27.0471 39.5569 27.0247 39.7287 27.038L39.343 32.0231ZM40.8644 31.8261C41.3525 31.6563 41.8003 31.3874 42.1796 31.0363L38.7832 27.367C38.9096 27.2499 39.0588 27.1603 39.2216 27.1037L40.8644 31.8261ZM42.1796 31.0363C42.5589 30.6853 42.8615 30.2596 43.0685 29.786L38.4869 27.7838C38.5559 27.6259 38.6567 27.484 38.7832 27.367L42.1796 31.0363ZM43.0685 29.786C43.2754 29.3124 43.3823 28.8011 43.3823 28.2843L38.3823 28.2843C38.3823 28.112 38.4179 27.9416 38.4869 27.7838L43.0685 29.786ZM43.3823 28.2843C43.3823 27.7675 43.2754 27.2562 43.0685 26.7826L38.4869 28.7849C38.4179 28.627 38.3823 28.4566 38.3823 28.2843L43.3823 28.2843ZM43.0685 26.7826C42.8615 26.3091 42.5589 25.8834 42.1796 25.5323L38.7832 29.2017C38.6567 29.0846 38.5559 28.9427 38.4869 28.7849L43.0685 26.7826ZM42.1796 25.5323C41.8003 25.1812 41.3525 24.9123 40.8644 24.7425L39.2216 29.4649C39.0588 29.4083 38.9096 29.3187 38.7832 29.2017L42.1796 25.5323ZM40.8644 24.7425C40.3763 24.5727 39.8583 24.5056 39.343 24.5455L39.7287 29.5306C39.5569 29.5439 39.3843 29.5215 39.2216 29.4649L40.8644 24.7425ZM39.5358 24.538L29.5303 24.538L29.5303 29.538L39.5358 29.538L39.5358 24.538ZM32.0303 27.038L32.0303 17.0325L27.0303 17.0325L27.0303 27.038L32.0303 27.038ZM32.0228 16.8396C31.95 15.898 31.5245 15.0185 30.8313 14.3769L27.4349 18.0462C27.2039 17.8324 27.062 17.5392 27.0377 17.2253L32.0228 16.8396ZM30.8313 14.3769C30.1382 13.7353 29.2285 13.3789 28.284 13.3789L28.284 18.3789C27.9692 18.3789 27.6659 18.2601 27.4349 18.0462L30.8313 14.3769ZM28.284 13.3789C27.3395 13.3789 26.4298 13.7353 25.7367 14.3769L29.1331 18.0462C28.9021 18.2601 28.5988 18.3789 28.284 18.3789L28.284 13.3789ZM25.7367 14.3769C25.0435 15.0185 24.618 15.898 24.5452 16.8396L29.5303 17.2253C29.506 17.5392 29.3642 17.8324 29.1331 18.0462L25.7367 14.3769ZM24.5377 17.0325L24.5377 27.038L29.5377 27.038L29.5377 17.0325L24.5377 17.0325ZM27.0377 24.538L17.0322 24.538L17.0322 29.538L27.0377 29.538L27.0377 24.538ZM17.0247 24.538C16.034 24.541 15.0848 24.9358 14.3842 25.6364L17.9198 29.1719C17.6863 29.4054 17.3698 29.537 17.0396 29.538L17.0247 24.538ZM14.3842 25.6364C13.6837 26.3369 13.2889 27.2862 13.2859 28.2769L18.2859 28.2917C18.2849 28.622 18.1533 28.9384 17.9198 29.1719L14.3842 25.6364ZM13.2859 28.2917C13.2889 29.2824 13.6837 30.2317 14.3842 30.9322L17.9198 27.3967C18.1533 27.6302 18.2849 27.9466 18.2859 28.2769L13.2859 28.2917ZM14.3842 30.9322C15.0848 31.6328 16.034 32.0276 17.0247 32.0306L17.0396 27.0306C17.3698 27.0316 17.6863 27.1632 17.9198 27.3967L14.3842 30.9322ZM17.0322 32.0306L27.0377 32.0306L27.0377 27.0306L17.0322 27.0306L17.0322 32.0306ZM24.5377 29.5306L24.5377 39.5361H29.5377L29.5377 29.5306L24.5377 29.5306ZM24.5377 39.5436C24.5407 40.5343 24.9356 41.4836 25.6361 42.1841L29.1716 38.6485C29.4051 38.8821 29.5367 39.1985 29.5377 39.5287L24.5377 39.5436ZM25.6361 42.1841C26.3366 42.8846 27.2859 43.2795 28.2766 43.2824L28.2914 38.2824C28.6217 38.2834 28.9381 38.415 29.1716 38.6485L25.6361 42.1841ZM28.2914 43.2824C29.2821 43.2795 30.2314 42.8846 30.9319 42.1841L27.3964 38.6485C27.6299 38.415 27.9463 38.2834 28.2766 38.2824L28.2914 43.2824ZM30.9319 42.1841C31.6325 41.4836 32.0273 40.5343 32.0303 39.5436L27.0303 39.5287C27.0313 39.1985 27.1629 38.8821 27.3964 38.6485L30.9319 42.1841ZM32.0303 39.5361L32.0303 29.5306L27.0303 29.5306L27.0303 39.5361L32.0303 39.5361Z" fill="#FCFCFC" mask="url(#path-2-inside-1_568_3871)"/>
</svg>
