<?xml version="1.0" standalone="no"?>
<!DOCTYPE svg PUBLIC "-//W3C//DTD SVG 20010904//EN"
 "http://www.w3.org/TR/2001/REC-SVG-20010904/DTD/svg10.dtd">
<svg version="1.0" xmlns="http://www.w3.org/2000/svg"
 width="100.000000pt" height="100.000000pt" viewBox="0 0 100.000000 100.000000"
 preserveAspectRatio="xMidYMid meet">
<metadata>
Created by potrace 1.16, written by Peter Selinger 2001-2019
</metadata>
<g transform="translate(0.000000,100.000000) scale(0.100000,-0.100000)"
fill="currentColor" stroke="none">
<path d="M356 856 c-105 -44 -177 -118 -216 -223 -18 -47 -21 -74 -18 -148 3
-78 8 -100 35 -156 39 -79 102 -140 181 -177 50 -24 69 -27 162 -27 93 0 112
3 162 27 79 37 142 98 181 177 30 61 32 72 32 171 0 99 -2 110 -32 171 -39 79
-102 140 -181 177 -47 22 -74 27 -152 30 -82 2 -103 -1 -154 -22z"/>
</g>
</svg>
