<?xml version="1.0" standalone="no"?>
<!DOCTYPE svg PUBLIC "-//W3C//DTD SVG 20010904//EN"
 "http://www.w3.org/TR/2001/REC-SVG-20010904/DTD/svg10.dtd">
<svg version="1.0" xmlns="http://www.w3.org/2000/svg"
 width="96.000000pt" height="96.000000pt" viewBox="0 0 96.000000 96.000000"
 preserveAspectRatio="xMidYMid meet">
<metadata>
Created by potrace 1.16, written by Peter Selinger 2001-2019
</metadata>
<g transform="translate(0.000000,96.000000) scale(0.100000,-0.100000)"
fill="currentColor" stroke="none">
<path d="M149 811 l-29 -29 0 -302 0 -302 29 -29 29 -29 302 0 302 0 29 29 29
29 0 302 0 302 -29 29 -29 29 -302 0 -302 0 -29 -29z m613 -49 c19 -19 19
-545 0 -564 -19 -19 -545 -19 -564 0 -10 10 -14 73 -16 255 -4 273 -1 304 31
317 36 15 533 8 549 -8z"/>
</g>
</svg>
