<svg width="36" height="36" viewBox="0 0 36 36" fill="none" xmlns="http://www.w3.org/2000/svg">
<circle cx="18" cy="18" r="18" fill="#FFFBEB"/>
<path d="M12.6667 24.6665C12.6667 23.252 13.2287 21.8955 14.2288 20.8953C15.229 19.8951 16.5856 19.3332 18.0001 19.3332C19.4146 19.3332 20.7711 19.8951 21.7713 20.8953C22.7715 21.8955 23.3334 23.252 23.3334 24.6665H22.0001C22.0001 23.6056 21.5787 22.5882 20.8285 21.8381C20.0784 21.0879 19.0609 20.6665 18.0001 20.6665C16.9392 20.6665 15.9218 21.0879 15.1717 21.8381C14.4215 22.5882 14.0001 23.6056 14.0001 24.6665H12.6667ZM18.0001 18.6665C15.7901 18.6665 14.0001 16.8765 14.0001 14.6665C14.0001 12.4565 15.7901 10.6665 18.0001 10.6665C20.2101 10.6665 22.0001 12.4565 22.0001 14.6665C22.0001 16.8765 20.2101 18.6665 18.0001 18.6665ZM18.0001 17.3332C19.4734 17.3332 20.6667 16.1398 20.6667 14.6665C20.6667 13.1932 19.4734 11.9998 18.0001 11.9998C16.5267 11.9998 15.3334 13.1932 15.3334 14.6665C15.3334 16.1398 16.5267 17.3332 18.0001 17.3332Z" fill="#F59E0B"/>
</svg>
